<svg xmlns="http://www.w3.org/2000/svg" viewBox="0 0 96 93.6"><defs><style>.cls-1{fill:#ea77ff;}.cls-2{fill:#1f0040;}.cls-3{fill:#fff;}</style></defs><title>After Effects_1</title><g id="Layer_2" data-name="Layer 2"><g id="Layer_1-2" data-name="Layer 1"><rect class="cls-1" width="96" height="93.6" rx="17.6" ry="17.6"/><rect class="cls-2" x="4" y="4" width="88" height="85.6" rx="14.4" ry="14.4"/><path class="cls-3" d="M27.2,53.76l-3.2,12c0,.32-.16.48-.64.48H17.44c-.32,0-.48-.16-.32-.64L28.48,25.92a12,12,0,0,0,.32-3.2c0-.32.16-.32.32-.32h8.32c.32,0,.32,0,.48.32l12.8,43c0,.32,0,.48-.32.48H43.84a.83.83,0,0,1-.64-.32L40,53.76Zm11.2-6.4c-1.12-4.48-3.84-14.08-4.8-18.88h0c-.8,4.64-3,12.64-4.64,18.88Zm21.44,4c0,5.44,2.72,9.12,8.64,9.12A15,15,0,0,0,75,59.2c.32-.16.48,0,.48.32v5a1.22,1.22,0,0,1-.32.8c-2.08,1.12-4.8,1.44-8,1.44-10.56,0-14.56-7.84-14.56-16.48,0-9.44,5-17.12,13.44-17.12,8.64,0,11.68,7.36,11.68,13.28a21.41,21.41,0,0,1-.32,4.16A.42.42,0,0,1,77,51a47.47,47.47,0,0,1-6.72.32ZM68,45.92h3v-.64C71,43,69.92,39,65.76,39c-3.84,0-5.44,3.36-5.92,6.88Z"/></g></g></svg>