<svg xmlns="http://www.w3.org/2000/svg" viewBox="0 0 96 93.6"><defs><style>.cls-1{fill:#3df0f0;}.cls-2{fill:#022326;}.cls-3{fill:#fff;}</style></defs><title>Lightroom_1</title><g id="Layer_2" data-name="Layer 2"><g id="Layer_1-2" data-name="Layer 1"><rect class="cls-1" width="96" height="93.6" rx="17.6" ry="17.6"/><rect class="cls-2" x="4" y="4" width="88" height="85.6" rx="14.4" ry="14.4"/><path class="cls-3" d="M56.2,40.2c0-.48,0-1.64-.2-3.88a.46.46,0,0,1,.32-.52A42.07,42.07,0,0,1,71,33c.32,0,.48.08.48.4V39.2c0,.32-.12.4-.48.4-2.52-.12-6.24.2-7.64.8V65.64c0,.32-.12.48-.48.48H56.64c-.32,0-.48-.12-.48-.48V40.2ZM26.6,66.12c-.48,0-.6-.2-.6-.6v-43c0-.32.12-.52.48-.52H32.8c.32,0,.4.12.4.48v37H49.68c.32,0,.44.12.36.48l-1,5.68a.57.57,0,0,1-.6.48H26.6Z"/></g></g></svg>